Coordinates
version=1
nRows=8
nColumns=42
inDegrees=yes

Units are S.I. units (second, meters, Newtons, ...)
If the header above contains a line with 'inDegrees', this indicates whether rotational values are in degrees (yes) or radians (no).

endheader
time	pelvis_tilt	pelvis_list	pelvis_rotation	pelvis_tx	pelvis_ty	pelvis_tz	hip_flexion_r	hip_adduction_r	hip_rotation_r	knee_angle_r	knee_angle_r_beta	ankle_angle_r	subtalar_angle_r	mtp_angle_r	hip_flexion_l	hip_adduction_l	hip_rotation_l	knee_angle_l	knee_angle_l_beta	ankle_angle_l	subtalar_angle_l	mtp_angle_l	lumbar_extension	lumbar_bending	lumbar_rotation	sh_tx_r	sh_ty_r	sh_tz_r	sh_plane_elev_r	sh_elev_r	sh_axial_rot_r	elbow_flex_r	pro_sup_r	sh_tx_l	sh_ty_l	sh_tz_l	sh_plane_elev_l	sh_elev_l	sh_axial_rot_l	elbow_flex_l	pro_sup_l
      7.01694920	     -7.26682561	     -0.52477622	     -0.91695791	      0.28424515	      0.93081243	     -0.04869952	      5.38611425	     -7.26806288	     -5.83935365	      0.50851919	      0.00887533	      1.29902719	      0.45075340	     -7.49999987	      4.57109650	     -5.52891301	     -6.77825000	      1.23569845	      0.02156701	      6.41587682	     -4.95629558	     -7.49999987	      4.24470325	      7.14708829	      2.13408360	     -0.01156072	     -0.01740357	     -0.00613174	      6.98536861	      8.78727891	      4.48591127	     23.56020427	     71.78059867	     -0.02176208	      0.02724678	     -0.00401268	     -9.14627765	     60.50898324	     17.99369750	     93.92102984	     72.71759722
      7.03389830	     -7.11337982	     -0.49936575	     -0.83350305	      0.28406242	      0.93041782	     -0.04838083	      5.18970587	     -7.30289612	     -6.05817189	      0.49730710	      0.00867965	      1.26438597	      0.28952691	     -7.49999987	      4.42220179	     -5.50946008	     -6.84233377	      1.24387650	      0.02170974	      6.18798134	     -4.88450485	     -7.49999987	      4.07657597	      7.13659404	      2.13216720	     -0.01139031	     -0.01740233	     -0.00601664	      7.17253992	      8.73556579	      4.77173225	     23.34155221	     71.54182717	     -0.02229013	      0.02724102	     -0.00407966	     -9.09397135	     60.56481367	     18.00086525	     93.87464285	     72.46710787
      7.05084750	     -6.99003233	     -0.47600694	     -0.83466936	      0.28403746	      0.92794903	     -0.04833992	      5.04183508	     -7.34581936	     -6.00438047	      0.48878878	      0.00853097	      1.39826660	      0.06569277	     -7.49999987	      4.26827896	     -5.50156690	     -6.81064085	      1.26008154	      0.02199257	      6.36926751	     -4.85408932	     -7.49999987	      3.99553243	      7.11814837	      2.04869649	     -0.01055298	     -0.01722875	     -0.00613818	      7.42152511	      8.76791954	      5.95119033	     23.17702899	     70.43156764	     -0.02220827	      0.02707997	     -0.00426462	     -9.39886116	     60.73429038	     17.99937834	     94.16768923	     71.41757213
      7.06779660	     -6.96629750	     -0.46400556	     -0.85945378	      0.28398271	      0.93146810	     -0.04862190	      5.04226699	     -7.34534368	     -6.03998246	      0.49753746	      0.00868367	      1.46217288	      0.11109329	     -7.49999987	      4.21316544	     -5.51089977	     -6.82454589	      1.21814347	      0.02126061	      6.39392567	     -4.79875182	     -7.49999987	      3.74964136	      7.07374214	      2.26268151	     -0.01328836	     -0.01722294	     -0.00603617	     10.35988919	      9.04016398	      3.91136124	     22.35874347	     70.96201629	     -0.02322621	      0.02724179	     -0.00423025	     -9.16727211	     60.46378465	     17.32584033	     94.13565614	     72.81734755
      7.08474580	     -6.96661423	     -0.46295415	     -0.84924351	      0.28391687	      0.92824513	     -0.04819206	      5.05254054	     -7.33201619	     -6.02648433	      0.49967114	      0.00872091	      1.46600825	     -0.06566205	     -7.49999987	      4.20396631	     -5.51994282	     -6.77766049	      1.21762664	      0.02125159	      6.45237189	     -4.82231261	     -7.49999987	      3.76316607	      7.05053512	      2.07036222	     -0.01265812	     -0.01717821	     -0.00604692	     10.39203862	      9.05620266	      4.61986028	     22.51154971	     70.18091768	     -0.02352665	      0.02685905	     -0.00425036	     -9.73995179	     60.61440006	     17.48442737	     94.94855662	     72.27316168
      7.10169490	     -7.17065160	     -0.42955372	     -0.86515706	      0.28397338	      0.92820540	     -0.04825208	      5.30302558	     -7.33707682	     -5.95862722	      0.52559351	      0.00917334	      1.48131599	     -0.18525263	     -7.49999987	      4.43706624	     -5.50135773	     -6.76295895	      1.26927816	      0.02215308	      6.51074091	     -4.76044770	     -7.49999987	      4.16572315	      7.03590528	      2.14506382	     -0.01240664	     -0.01715639	     -0.00601992	     10.21815765	      8.97057695	      5.03346828	     22.12142622	     69.83339807	     -0.02253966	      0.02703188	     -0.00417846	    -10.11147351	     60.55667773	     17.68458233	     95.02500567	     71.92419859
      7.11864410	     -7.11888545	     -0.41594405	     -0.84066084	      0.28405696	      0.93169569	     -0.04841315	      5.27081504	     -7.34790187	     -6.12162674	      0.51239171	      0.00894292	      1.40371950	     -0.21523930	     -7.49999987	      4.35876403	     -5.47899852	     -6.75342601	      1.20261448	      0.02098958	      6.45411529	     -4.71018310	     -7.49999987	      4.09310979	      7.02102607	      2.06651837	     -0.01216243	     -0.01711444	     -0.00602036	     10.25633070	      8.96520533	      5.31711419	     22.16073926	     69.67530936	     -0.02303765	      0.02659292	     -0.00427091	    -10.21996939	     60.63486226	     17.94198892	     94.93353782	     71.81495183
      7.13559320	     -7.05651528	     -0.38042504	     -0.84928974	      0.28381528	      0.93163494	     -0.04843606	      5.26821117	     -7.39600414	     -6.20805137	      0.50593501	      0.00883023	      1.38648563	     -0.34556007	     -7.49999987	      4.27814383	     -5.41429915	     -6.80897749	      1.13754273	      0.01985387	      6.43274970	     -4.73513009	     -7.49999987	      3.98393758	      7.02564605	      2.18505021	     -0.01225026	     -0.01711492	     -0.00607559	     10.28803464	      9.00594828	      5.39552691	     22.22400695	     69.46302005	     -0.02309158	      0.02662252	     -0.00436432	    -10.42434579	     60.40135205	     17.70408140	     94.99366519	     71.62300391
